# xmcd
# 
# Track frame offsets:
#     150
#     10936
#     28940
#     49479
#     65105
#     76205
#     99367
#     115310
#     136280
#     151568
#     166138
#     187979
#     207957
#     220653
#     253873
# 
# Disc length: 4690
# 
# Revision: 2
# Processed by: cddbd v1.5.2PL0 Copyright (c) Steve Scherf et al.
# Submitted via: BonkEnc v1.0.6
# 
DISCID=c912500f
DTITLE=JJ Milteau - Soul Conversation
DYEAR=2008
DGENRE=Blues
TTITLE0=Wooosh !
TTITLE1=Rock 'n' Roll Will Never Die
TTITLE2=Is this the Way
TTITLE3=It's so Real
TTITLE4=Hole in the Wall (Burgers N' Blues)
TTITLE5=You Can't Always Get What You Want
TTITLE6=You Never Know
TTITLE7=Summer Moments
TTITLE8=Tchoupitoula
TTITLE9=People Get Ready
TTITLE10=Long Time Gone
TTITLE11=Down in Mississippi
TTITLE12=Beaumont Lafayette
TTITLE13=Will You Come
TTITLE14=Bonus Track
EXTD=YEAR: 2008
EXTT0=
EXTT1=
EXTT2=
EXTT3=
EXTT4=
EXTT5=
EXTT6=
EXTT7=
EXTT8=
EXTT9=
EXTT10=
EXTT11=
EXTT12=
EXTT13=
EXTT14=
PLAYORDER=
